<svg xmlns="http://www.w3.org/2000/svg" width="918" height="1038" viewBox="0 0 918 1038"><g fill="#FFF" fill-rule="nonzero"><path d="M-100 61.878c12.885 6.264 25.464 13.553 37.667 21.826 17.58 11.827 35.94 20.662 56.07 21.504 15.921.871 31.857-1.204 47.334-6.165 7.413-2.652 14.645-6.098 21.625-10.303 14.7-8.44 29.152-17.633 43.879-26.127 19.745-11.433 39.244-23.69 59.881-32.256 20.483-8.41 41.775-12.984 63.24-13.583 18.965-.645 37.929-.789 56.865-1.649 10.353-.466 20.678-1.9 31.004-2.992a874.63 874.63 0 0 0 20.801-2.438c6.39-.824 12.753-2.15 19.197-2.616 8.735-.645 17.497-.896 26.245-.86 6.857 0 13.59.573 20.377 1.093 13.385 1.046 26.645 3.984 39.546 8.763 13.37 4.946 26.643 10.393 39.861 16.128 7.789 3.333 15.29 7.795 23.05 11.253 10.407 4.92 20.453 11.055 30.017 18.332 9.489 6.881 18.991 14.067 26.492 24.783 8.062 11.54 13.589 24.604 14.15 40.517.118 8.908-1.137 17.757-3.688 26.02-6.349 22.47-17.346 40.48-31.291 55.784-14.837 16.289-32.17 25.714-50.489 32.667-13.584 4.953-27.404 8.725-41.37 11.29-15.864 3.172-31.84 5.842-47.197 12.418-11.836 4.761-22.642 13.112-31.538 24.371-12.478 16.128-15.18 41.072-6.623 63.49 4.612 11.623 10.59 22.229 17.716 31.431 12.615 16.898 25.039 34.048 37.915 50.552 10.365 13.593 22.14 25.217 34.98 34.531 16.888 11.977 35.855 18.063 55.068 17.669 9.31 0 18.62 0 27.918-.538 4.607-.233 9.2-1.47 13.794-2.293 10.079-1.792 20.185-3.387 30.167-5.556 11.258-2.455 22.46-5.375 33.677-8.207 17.182-4.336 34.487-7.544 51.874-10.232 24.449-3.781 48.925-3.154 73.415-2.598 13.575.322 27.164.645 40.725 1.487 17.14 1.057 34.28 2.043 51.394 4.157 13.231 1.448 26.11 6.321 37.887 14.336 12.971 8.96 21.665 23.296 27.109 41.054 6.816 21.63 10.905 44.56 12.108 67.898.795 16.791 2.55 33.546 2.578 50.319.027 16.773-1.481 33.098-2.482 49.62-.535 8.834-1.111 17.705-2.208 26.45-3.017 24.066-8.927 47.075-15.783 69.654-7.651 24.954-17.686 48.544-29.865 70.21-9.399 17.17-21.516 31.497-35.528 42.003-16.908 12.544-35.131 19.085-54.342 21.898-15.824 2.312-31.456.34-46.91-3.673-10.654-2.742-21.157-6.595-31.538-10.663-5.937-2.311-11.56-6.057-17.318-9.139-22.145-11.88-44.195-24.102-66.463-35.517-19.335-10.042-40.109-14.469-60.883-12.974-10.517.753-20.5 2.993-30.098 8.638-7.13 4.175-13.123 10.393-18.95 16.952-10.147 11.379-17.826 25.356-24.586 40.265-6.13 13.422-12.712 26.486-19.06 39.746-3.223 6.72-6.459 13.44-9.599 20.25-8.296 18.08-19.951 31.556-33.69 42.165-10.484 8.106-21.991 13.701-33.98 16.522-13.779 3.165-27.917 2.444-41.465-2.115-24.616-8.204-48.113-21.333-69.659-38.921a8429.322 8429.322 0 0 1-51.078-41.216c-10.366-8.332-20.801-16.54-32.292-21.916-14.608-7.116-30.1-10.622-45.689-10.34-16.263.52-32.498 1.793-48.747 2.653-15.015.77-30.016 1.559-45.031 2.06-13.945.449-27.89.538-41.836.771-11.109.312-22.153 2.308-32.91 5.95-15.604 5.053-31.126 10.465-46.758 15.375-6.76 2.132-13.712 3.458-20.568 4.946a11.505 11.505 0 0 1-4.114-.753v5.609c10.64.143 20.966-2.545 31.182-6.04 8.227-2.848 16.454-6.522 24.778-8.959 17.579-5.376 35.13-10.609 53.395-10.555 21.117 0 42.234-.555 63.337-1.415 15.18-.628 30.345-2.294 45.524-3.262 18.8-1.2 37.613-1.165 55.919 5.502 12.71 4.895 24.822 12.136 35.967 21.503 7.583 6.165 15.234 12.186 22.845 18.278 14.617 11.738 29.015 23.977 43.879 35.07 20.733 15.464 42.672 27.363 66.175 33.473 21.894 5.922 44.671 2.244 64.804-10.465 14.193-8.524 26.734-21.117 36.694-36.843a246.185 246.185 0 0 0 12.52-23.582c4.95-10.232 9.53-20.805 14.26-31.234 4.017-8.817 7.541-18.1 12.108-26.396 9.214-16.72 19.43-32.256 33.28-43.007 9.186-7.339 19.69-11.38 30.454-11.72 6.253-.18 12.501-.18 18.745 0 15.03.657 29.842 4.909 43.7 12.544 25.67 13.53 51.257 27.327 76.926 40.893 16.44 8.532 33.662 14.225 51.229 16.934 25.67 4.211 50.612 1.147 74.855-10.967 22.414-11.043 41.726-30.736 55.37-56.465 11.128-20.345 20.522-42.217 28.014-65.228 6.138-19.652 11.148-39.873 14.988-60.497 4.196-21.701 4.977-43.85 6.156-65.945a389.45 389.45 0 0 0 .659-39.871 821.596 821.596 0 0 0-5.238-65.39c-2.935-22.328-7.94-44.118-18.635-62.719-7.163-12.682-17.061-22.28-28.426-27.56-15.296-7.269-31.404-11.192-47.677-11.612-18.58-.52-37.147-2.294-55.727-3.387-6.966-.412-13.945-.448-20.925-.61-14.123-.34-28.26-1.236-42.384-.788-11.23.34-22.447 2.007-33.622 3.691-12.945 1.954-25.89 4.176-38.738 6.99-14.425 3.135-28.727 7.382-43.152 10.572-11.436 2.527-22.968 4.498-34.514 6.128-9.392 1.344-18.895 2.814-28.302 2.438-10.97-.43-22.131.197-33.1-2.957-13.664-3.791-26.64-10.99-38.217-21.2-8.047-6.935-15.617-14.772-22.625-23.42-15.358-19.55-30.304-39.675-44.962-60.103-7.61-10.609-13.918-22.705-15.893-37.506-1.714-12.903-.7-25.644 5.773-35.84 4.471-6.671 9.63-12.497 15.33-17.31 9.42-8.405 20.253-12.813 31.346-15.537 16.853-4.121 33.856-7.042 50.736-11.325 19.841-5.071 39.285-12.114 57.248-24.73 19.842-13.923 35.652-33.474 46.622-59.296 4.749-11.014 7.865-23.1 9.187-35.624 1.878-18.655-3.318-34.37-11.806-48.67-7.871-13.243-18.786-21.379-29.523-29.801-16.454-12.92-34.431-21.504-52.49-29.675a855.976 855.976 0 0 0-42.234-17.651c-12.997-5.167-26.44-8.177-40.012-8.96-7.857-.394-15.714-1.416-23.571-1.523-7.858-.108-15.358.25-22.996.95-9.256.842-18.47 2.33-27.712 3.386-10.97 1.255-22.077 2.366-33.115 3.584-4.457.466-8.913 1.04-13.383 1.165-18.95.574-37.942.466-56.879 1.649-11.367.717-22.693 3.046-33.992 5.16-24.477 4.606-47.13 16.523-69.453 29.82-23.407 13.923-46.745 28.061-70.316 41.483C42.708 93.85 30.216 97.697 17.5 98.577c-9.42.681-18.91.735-28.357.359-13.04-.52-25.326-5.555-37.133-12.544-11.806-6.989-23.53-14.694-35.404-21.7-5.348-3.173-10.97-5.377-16.537-8.1l-.069 5.286z"></path><path d="M-100.35 882.986c11.043 3.09 22.4 3.763 33.611 1.993a211.51 211.51 0 0 1 64.726.448c20.232 3.142 40.478 6.247 60.765 8.491 14.776 1.634 29.635 1.957 44.466 2.603 16.572.736 33.185.485 49.716 1.939 14.38 1.256 28.032 7.395 40.78 16.03 13.474 9.136 26.839 18.668 39.75 29.061 16.888 13.607 33.323 28.183 49.923 42.382 19.641 16.901 41.972 27.701 65.288 31.575 17.505 3.028 35.301-.913 51.073-11.309 11.268-7.18 21.85-15.904 30.348-28.38 7.416-10.86 13.132-23.156 18.478-35.901 3.454-8.186 7.073-16.156 10.65-24.341 5.25-11.901 10.35-23.928 15.887-35.578 4.212-9.004 9.725-16.845 16.23-23.085 5.195-4.918 10.143-10.357 15.598-14.72 9.33-7.535 20.033-11.651 30.993-11.918 12.5-.341 24.974-.808 37.42 2.297 11.76 2.859 23.25 7.373 34.269 13.463 21.822 12.207 43.548 24.7 65.343 36.996 16.897 9.519 34.518 16.661 52.567 21.308 14.75 3.857 29.9 4.313 44.768 1.346 12.045-2.098 23.825-6.269 35.036-12.404 18.834-10.77 34.858-26.297 46.961-48.466 10.857-19.836 20.89-40.228 27.703-63.097 6.292-21.181 11.583-42.83 14.351-65.25 2.632-21.433 5.14-43.082 3.756-64.91-1.37-22.617-2.563-45.307-6.58-67.476-2.384-13.158-4.907-26.333-8.045-39.222-6.621-27.249-20.397-46.24-40.41-57.442-12.595-6.742-25.868-11.065-39.408-12.834-18.793-2.872-37.682-4.775-56.543-6.893-6.223-.7-12.487-.718-18.724-1.221-3.372-.287-6.744-1.364-10.116-1.364-8.553 0-17.12.269-25.687.682-6.06.287-12.131.79-18.176 1.508-10.966 1.31-22.083 2.333-33.021 4.416-13.242 2.513-26.36 5.995-39.532 9.083-18.807 4.38-37.53 9.316-56.406 12.996a264.565 264.565 0 0 1-37.338 4.218c-20.04.97-39.642-3.034-57.982-14.001-7.92-4.887-15.467-10.754-22.535-17.52-22.686-21.236-43.7-45.218-64.74-69.128-6.072-6.893-11.87-14.217-17.559-21.63-7.462-9.487-13.14-21.113-16.586-33.963-3.043-11.596-2.974-23.461-2.234-35.398a72.253 72.253 0 0 1 1.85-14.36c4.113-15.061 12.337-26.011 22.083-35.166 11.569-10.77 24.673-16.712 38.545-19.746 18.628-4.164 37.38-7.467 56.035-11.542 13.022-2.836 26.14-5.385 38.874-9.801 20.04-6.929 38.765-17.735 53.308-38.217 9.585-13.154 15.43-30.219 16.558-48.34a51.6 51.6 0 0 0-1.466-14.361c-4.784-20.985-16.079-35.058-29.868-45.936-9.68-7.827-19.756-14.784-30.157-20.823-10.527-5.941-21.397-10.195-32.047-15.42-13.612-6.695-27.62-11.039-41.725-15.096-6.429-1.795-13.063-2.405-19.588-3.59-17.724-3.392-35.283-.161-52.87 2.083-8.703 1.113-17.421 1.974-26.125 3.087-12.611 1.598-25.208 3.483-37.832 4.937-9.253 1.059-18.533 2.118-27.799 2.28-19.52.34-38.915 1.974-58.119 6.785-10.131 2.702-20.121 6.246-29.91 10.608-17.051 7.306-33.006 17.52-48.742 28.614-19.492 13.75-39.19 26.926-58.942 40.209-14.349 9.596-29.54 16.86-45.234 21.63-18.132 5.43-36.668 8.205-55.268 8.276-19.69.375-39.333-2.686-58.407-9.101a7.74 7.74 0 0 0-2.138-.144v5.619c8.224 1.938 16.449 4.182 24.783 5.708 17.545 3.231 35.132 4.954 52.883 2.37 10.815-1.58 21.698-2.244 32.417-5.099 17.724-4.585 34.901-12.252 51.074-22.797 20.26-13.337 40.025-27.931 60.312-41.286 14.338-9.442 28.881-18.543 43.863-26.19 13.255-6.803 27.264-10.77 41.383-13.822a252.41 252.41 0 0 1 43.192-4.757c16.955-.61 33.925-1.4 50.717-4.721 8.224-1.616 16.695-2.154 25.043-3.16 14.927-1.794 29.84-4.02 44.795-5.259 8.743-.652 17.51-.496 26.236.467 9.24.966 18.43 2.626 27.524 4.972a264.526 264.526 0 0 1 32.199 10.196c10.006 4.003 19.725 9.299 29.388 14.558 8.855 4.81 17.902 9.442 26.126 15.815 11.309 8.76 22.796 17.645 30.87 31.952 4.207 7.45 7.47 15.688 8.388 24.771a62.146 62.146 0 0 1-1.37 17.951c-4.29 21.54-14.626 37.032-28.608 48.97-13.378 11.227-28.34 18.826-44 22.348-21.767 5.205-43.672 9.406-65.507 14.109-13.543 2.908-27.168 5.152-40.218 11.255-17.97 8.419-32.431 22.582-42.369 43.997-2.094 4.861-3.488 10.185-4.112 15.707a139.098 139.098 0 0 0-.768 34.931c1.889 16.326 7.642 31.463 16.449 43.28 8.663 11.757 17.82 22.976 27.209 33.746a1495.377 1495.377 0 0 0 41.45 45.541c13.201 13.984 26.799 27.267 42.494 36.44 15.42 8.975 31.636 12.96 48.359 13.606 18.587.44 37.164-1.406 55.487-5.51 19.711-4.13 39.272-9.46 58.942-14.235 15.626-3.788 31.197-7.88 47.112-9.209 16.215-1.364 32.39-3.446 48.606-4.595 6.195-.431 12.46.772 18.697 1.364 12.46 1.185 24.933 2.226 37.38 3.716 19.902 2.405 39.942 3.267 59.448 9.873 8.841 2.997 17.518 6.372 25.592 12.188 14.31 10.34 23.878 25.975 29.347 45.702 7.26 26.934 11.799 54.995 13.502 83.47.78 11.633 1.247 23.336 1.987 34.932.905 14.163-1.37 28.021-2.563 41.915-1.892 21.397-6.511 42.13-11.802 62.522-5.947 22.598-14.34 43.961-24.92 63.437-4.478 8.738-9.391 17.08-14.708 24.97-15.27 21.666-34.542 34.68-56.2 41.142-10.258 3.11-20.727 4.872-31.253 5.26-9.465-.008-18.903-1.331-28.154-3.95-24.276-6.264-47.058-18.452-69.565-31.664-17.751-10.43-35.516-20.93-53.664-30.085-17.743-8.855-36.644-13.045-55.624-12.332-10.034.287-19.945 1.023-29.567 5.385-11.498 5.273-21.944 13.862-30.567 25.13-8.32 10.257-15.554 21.927-21.507 34.7-4.537 10.052-8.554 20.499-12.83 30.767-7.443 17.824-14.763 35.757-25.304 50.98-6.325 8.904-13.68 16.452-21.795 22.366-15.078 11.29-31.033 18.076-48.482 17.214-12.32-.904-24.486-4.014-36.16-9.244-14.941-6.283-28.484-16.156-41.574-27.177-16.38-13.769-32.432-28.183-48.785-42.005-4.934-4.164-10.349-7.342-15.585-10.77-10.02-6.678-19.848-13.984-30.156-19.746-12.665-7.168-26.249-11.139-40.04-11.704-19.299-.664-38.613-.287-57.899-1.31-16.449-.862-32.801-2.872-49.168-4.721-13.173-1.49-26.304-3.59-39.463-5.242-10.665-1.328-21.356-2.8-32.048-3.285-7.484-.323-14.996.898-22.494 1.454-8.91.683-17.82 1.795-26.743 1.795-5.839 0-11.678-1.795-17.518-2.656l-.013 5.69z"></path><path d="M-100.959 214.949c10.644-1.546 21.425-2.157 31.904-4.816 20.684-5.265 41.258-11.356 61.723-17.68 20.225-5.993 39.946-14.606 58.87-25.713 12.165-7.313 23.865-15.938 35.661-24.114 8.696-5.983 17.31-12.164 25.951-18.274 8.326-5.893 16.555-12.056 24.977-17.698C155 95.388 172.667 86.289 190.88 79.485c18.737-7.043 37.967-8.57 57.142-11.05 11.74-1.491 23.51-2.534 35.237-4.259 10.63-1.58 21.205-3.845 31.821-5.75 9.19-1.67 18.38-3.36 27.597-4.869 14.525-2.39 29.037-5.768 43.754-4.42a162.139 162.139 0 0 1 23.853 4.06c17.443 3.953 34.37 11.134 50.27 21.33 10.177 6.72 20.354 13.62 29.146 23.358 6.266 7.13 10.693 16.627 12.674 27.186 2.126 10.512-1.248 19.98-6.858 27.528-8.353 11.266-19.285 16.728-30.45 21.184-20.04 8.014-40.71 11.967-61.352 16.064-14.649 2.893-29.27 6.037-43.576 11.302-6.337 2.336-12.866 3.917-19.066 6.792-13.409 6.175-25.44 16.609-35.017 30.366-9.835 13.998-15.335 30.277-18.668 48.191a95.077 95.077 0 0 0-1.66 18.741c.275 14.968.289 30.08 1.962 44.921 2.496 22.281 11.44 40.59 23.51 56.367 10.56 13.782 22.782 24.778 34.948 35.937 17.584 16.045 35.072 32.343 52.835 48.029 14.045 12.434 27.843 25.461 43.891 33.529 8.174 4.095 16.657 7.04 25.307 8.786 21.657 4.456 43.15 1.294 64.671-1.797 23.66-3.378 46.635-11.14 69.884-17.626 18.16-5.068 36.403-9.65 54.96-11.554 12.469-1.276 24.923-2.911 37.404-3.702 11.612-.509 23.236.351 34.73 2.57 13.455 2.3 26.966 4.24 40.38 6.936 16.445 3.315 32.496 9.384 47.76 18.058 20.012 11.374 32.795 31.732 40.421 58.002 6.317 21.66 10.855 44.139 13.538 67.057 3.374 28.947 3.868 57.84-2.743 86.248-3.91 16.765-7.544 33.673-12.125 50.114-4.801 17.286-12.51 32.559-21.398 46.718-7.64 12.182-15.993 23.25-26.417 31.48-13.718 10.663-29.003 17.399-44.852 19.765a70.821 70.821 0 0 1-24.058.701c-16.83-2.965-33.55-7.062-49.296-15.704-17.117-9.398-34.057-19.352-50.996-29.289-16.13-9.487-32-19.765-48.857-26.952-20.23-8.832-41.589-12.373-62.861-10.422-14.677 1.396-28.869 7.492-41.327 17.753a137.604 137.604 0 0 0-10.479 10.655c-12.555 12.932-22.712 29.42-29.71 48.227-6.789 17.807-13.606 35.56-21.945 52.234-2.633 5.265-4.581 11.14-7.448 16.172-9.974 17.357-24.05 29.904-40.037 35.685a114.519 114.519 0 0 1-20.465 5.39c-3.442.629-7.105-.36-10.63-.988-15.984-2.786-31.44-9.407-45.592-19.532-11.11-7.942-21.809-16.908-32.507-25.766-17.228-14.25-34.4-28.588-51.436-43.25-16.416-14.277-34.698-24.473-53.932-30.079-10.29-3.035-20.783-4.75-31.327-5.121-6.241-.18-12.482-.809-18.71-1.473-15.32-1.618-30.682-2.821-45.935-5.23-17.42-2.766-34.29-9.199-51.065-15.775-25.855-10.099-51.668-20.394-77.633-30.025-11.302-4.205-22.934-6.936-34.414-10.35-1.564-.485-3.1-1.114-4.65-1.653v5.624c6.968 1.797 14.046 3.198 20.904 5.606a1706.992 1706.992 0 0 1 50.036 18.4c22.11 8.499 44.029 17.968 66.25 25.91 21.937 7.704 44.501 11.927 67.208 12.578 16.583.629 33.207 1.689 49.666 5.228 18.366 3.971 35.786 11.572 51.642 24.312 19.957 16.045 39.626 32.72 59.322 49.305 13.222 11.122 26.06 23.071 40.463 31.606 14.183 8.376 29.216 14.023 44.632 16.764 7.297 1.312 14.21-1.042 21.219-2.767 15.074-3.424 29.075-12.47 40.325-26.054 4.187-5.434 7.997-11.345 11.385-17.663 10.561-18.417 18.352-38.973 25.731-59.726 4.87-13.764 11.618-25.731 18.86-37.339 10.877-17.263 25.327-30.047 41.615-36.817 13.486-5.654 27.717-7.611 41.806-5.75 14.945 1.806 29.676 5.901 43.892 12.201a193.158 193.158 0 0 1 20.862 11.068c20.19 11.878 40.216 24.258 60.475 35.937 9.301 5.404 18.847 10.055 28.584 13.926 11.845 4.462 23.981 7.47 36.252 8.984 26.367 3.808 52.91-4.749 74.917-24.15 15.5-13.296 26.733-32.199 36.485-52.665 8.052-16.89 13.044-35.38 17.324-54.246 2.935-12.991 5.72-26.108 7.763-39.387a211.637 211.637 0 0 0 1.07-53.905c-1.372-13.206-2.524-26.485-4.622-39.53-3.621-22.478-8.395-44.651-17.077-64.794-8.327-19.646-21.445-35.065-37.253-43.789-13.2-7.21-26.941-12.588-40.997-16.045-22.292-5.605-44.839-9.29-67.498-11.033a189.075 189.075 0 0 0-48.157 2.39c-14.169 2.408-28.42 4.276-42.451 7.654-18.435 4.439-36.636 10.44-55.03 15.166-11.37 2.928-22.864 5.157-34.372 6.953-11.508 1.797-23.455 3.594-35.223 3.971-20.232.773-39.955-3.252-58.362-14.985-13.374-8.553-25.485-19.765-37.61-31.014-12.125-11.248-24.387-22.119-36.581-33.187-14.992-13.584-30.409-26.395-44.084-42.333-13.222-15.417-22.192-34.14-25.964-56.87a120.935 120.935 0 0 1-1.276-16.729c-.274-10.78-.672-21.562-.26-32.253.658-16.603 4.95-31.714 11.343-46.196 5.075-11.536 12.344-19.873 19.998-27.743 4.373-4.468 9.269-7.981 14.498-10.404 12.227-5.92 24.831-10.405 37.664-13.404 13.716-2.93 27.433-6.146 41.149-9.344 11.946-2.803 23.976-5.157 35.785-8.769 9.374-2.89 18.578-6.655 27.542-11.266 6.004-3.067 11.618-7.307 16.652-12.578 7.941-8.39 13.002-19.603 12.344-33.492-.494-9.775-4.115-18.49-8.696-26-3.12-5.12-6.788-9.623-10.89-13.37-18.655-16.871-38.817-29.755-60.914-36.834a224.425 224.425 0 0 0-30.395-8.158 104.27 104.27 0 0 0-34.29.288c-14.004 2.246-28.022 4.276-42.013 6.666-12.92 2.21-25.8 4.977-38.734 7.187-9.602 1.564-19.203 2.318-28.804 3.702-18.97 2.731-38.145 3.324-56.771 9.703-14.391 4.701-28.454 10.982-42.04 18.777-22.508 13.278-43.768 29.665-65.44 45.028-23.44 16.639-47.033 32.864-72.695 42.98-10.973 4.313-22.029 8.014-33.166 11.41-17.57 5.39-35.182 10.584-52.862 15.291-8.559 2.282-17.324 3.253-25.992 4.87-1.756.323-3.484.862-5.226 1.294l.041 4.474z"></path><path d="M-100 763.615c8.669 2.73 17.462 4.958 25.98 8.353 7.297 2.91 14.347 6.988 21.412 10.778 21.425 11.73 42.728 23.874 64.222 35.37 20.177 10.778 40.602 20.874 62.343 25.15 7.42 1.436 14.924 2.227 22.4 3.233 11.727 1.598 23.441 3.197 35.183 4.688 12.081 1.507 24.064 4.149 35.856 7.904 12.1 4.132 23.798 10.063 34.868 17.676 23.895 15.772 45.457 36.286 67.212 56.244 20.315 18.484 41.81 33.394 66.115 40.508 15.782 4.888 32.367 2.509 46.967-6.737 9.602-5.964 17.077-14.981 24.141-25.149 8.56-12.287 14.197-26.783 19.794-41.423 4.705-12.341 9.368-24.736 14.471-36.808 4.938-11.694 11.563-21.807 18.696-31.346 2.113-2.82 4.02-5.964 6.296-8.515 17.558-19.616 37.653-30.538 60.93-32.01 28.298-1.671 54.936 6.107 80.532 21.556 22.056 13.346 44.36 25.957 66.43 39.25 12.95 7.92 26.432 14.252 40.273 18.915 13.552 4.437 27.2 7.958 41.26 6.413 25.157-2.766 47.68-13.652 65.84-37.723 14.225-18.808 23.937-41.316 31.042-65.836 5.515-18.57 9.203-37.982 10.973-57.77 1.536-17.715.752-35.642-2.318-53.011-2.126-11.838-3.497-23.945-6.159-35.55-5.28-23.029-12.797-44.711-25.307-62.872-8.532-12.359-18.916-21.179-30.355-28.328-14.042-8.778-28.9-15.113-44.196-18.844a349.604 349.604 0 0 0-53.66-9.215c-23.319-1.994-46.377 1.31-69.202 7.58-17.296 4.76-34.552 9.718-51.85 14.497-15.897 4.4-31.781 8.981-47.761 12.88a129.329 129.329 0 0 1-22.359 3.107c-12.153.809-24.32 1.455-36.473 1.33-21.48-.234-41.15-8.982-59.05-24.143a2319.546 2319.546 0 0 1-45.636-39.52c-15.898-14.048-32.688-25.921-49.696-37.472-16.639-11.299-30.424-27.143-39.477-49.094-5.062-12.305-7.394-25.778-9.026-39.52a374.544 374.544 0 0 1 .247-91.614c4.115-32.065 15.939-58.381 37.515-75.931 10.315-8.39 21.947-12.467 33.675-15.431 11.728-2.964 23.483-5.748 35.225-8.569 9.821-2.335 19.684-4.419 29.477-6.987 11.234-2.947 22.249-7.024 31.974-15.341 2.983-2.538 5.711-5.555 8.12-8.982 5.364-7.76 5.858-17.443 1.88-26.64-2.636-5.616-6.09-10.5-10.164-14.37-8.12-8.444-17.503-13.366-27.365-17.084-11.92-4.455-23.977-8.048-36.419-7.042a211.588 211.588 0 0 0-28.709 4.42c-21.659 4.85-43.208 10.454-64.853 15.358-5.967 1.365-12.098 1.33-18.147 2.048-16.022 1.796-32.07 3.36-48.01 5.838-18.984 3.167-37.514 9.945-55.004 20.12-26.61 15.035-52.124 32.98-77.843 50.297-24.292 16.4-49.792 28.292-75.675 39.107a3984.422 3984.422 0 0 1-52.687 22.005c-15.527 6.287-31.096 12.359-46.637 18.466-2.387.952-4.87 1.545-7.297 2.3v5.622c19.725-7.544 39.463-14.945 59.147-22.67 15.911-6.251 31.795-12.682 47.583-19.454 14.76-6.323 29.67-12.27 43.99-20.065 16.639-8.982 32.77-19.76 48.997-30.035 18.668-11.838 37.035-24.305 55.813-35.927 12.837-8.315 26.397-14.558 40.383-18.593 10.973-2.946 22.194-4.562 33.332-6.413 9.601-1.598 19.203-2.838 28.805-3.952 6.227-.718 12.51-.844 18.75-1.437 13.032-1.275 25.72-5.245 38.504-8.532 12.784-3.288 25.65-6.054 38.476-9.09 9.711-2.281 19.519-3.898 29.326-2.533a188.856 188.856 0 0 1 24.197 5.695c10.735 2.706 20.8 8.819 29.313 17.802 3.264 3.554 6.047 7.805 8.23 12.574 2.743 6.197 1.934 12.574-1.729 18.18-4.604 6.633-10.446 11.586-16.954 14.37a169.527 169.527 0 0 1-22.125 8.21c-8.998 2.82-18.065 5.28-27.16 7.454-9.093 2.174-17.955 3.754-26.939 5.55-16.378 3.288-32.33 8.408-46.404 20.371-12.028 10.339-21.72 24.712-28.065 41.622-7.86 20.263-10.973 41.873-11.467 64.345-.22 10.527-.96 21.071-.617 31.562.727 22.005 2.62 43.813 8.23 64.812 4.115 15.413 11.275 28.041 20.218 39.179 9.959 12.142 21.284 22.205 33.58 29.837 17.694 11.335 34.195 25.346 50.532 39.7 11.577 10.167 23.044 20.55 34.786 30.394 16.65 14.3 35.706 23.085 55.526 25.597 15.088 1.797 30.026 0 45.018-.97 20.822-1.347 40.918-8.353 61.177-13.867 22.729-6.198 45.266-13.24 68.118-18.898 25.239-6.287 50.67-8.281 76.334-3.772 16.117 2.856 32.29 5.155 48.009 10.544 18.079 6.162 35.39 14.712 50.615 29.424 12.167 11.749 20.109 27.7 26.528 45.215 5.441 15.513 9.523 31.784 12.167 48.501 3.196 18.52 5.679 37.13 4.883 56.244-.72 14.268-2.62 28.392-5.665 42.124-4.746 22.4-11.275 43.831-21.178 63.393-8.738 17.263-19.204 32.083-33.085 42.215-11.424 8.337-23.931 13.819-36.885 16.167-16.213 2.982-32.015-.108-47.707-5.39-19.3-6.592-37.255-17.586-55.347-28.202-21.783-12.826-43.592-25.921-65.54-38.226-12.523-7.006-25.897-10.401-39.394-12.736a108.53 108.53 0 0 0-39.573.34c-16.747 2.986-32.5 12.151-45.417 26.425-5.17 5.748-10.726 11.084-15.157 17.712-10.496 15.358-19.208 32.657-25.856 51.34-3.374 9.79-6.858 19.49-10.699 28.993a110.847 110.847 0 0 1-7.078 14.047c-4.115 7.06-6.995 15.233-12.345 21.054-12.578 13.67-26.665 22.22-43.235 23.352-14.334.97-27.434-4.886-40.588-11.191-13.717-6.575-26.145-16.167-38.133-26.945-12.345-11.066-24.69-22.527-37.145-33.395-18.642-16.167-37.996-30.753-59.243-40.4-10.124-4.576-20.596-7.702-31.234-9.322-13.84-2.12-27.666-4.491-41.52-6.557-8.34-1.24-16.721-2.174-25.088-3.126-13.349-1.688-26.496-5.457-39.162-11.227-25.445-11.21-49.888-25.598-74.51-39.52-10.493-5.91-21.316-10.778-32.056-15.987-5.322-2.551-11.207-2.856-16.186-6.898-.791-.579-1.686-.87-2.592-.844-5.026-.18-9.955-1.85-14.417-4.887a15.713 15.713 0 0 0-3.086-1.15v5.731z"></path><path d="M-101 726.838c1.723.395 3.474.628 5.143 1.238 25.686 9.495 49.595 24.554 73.42 39.972 17.084 11.056 34.29 21.879 51.825 31.643 21.204 11.824 43.655 19.347 66.583 22.31 12.76 1.65 25.454 4.397 38.146 6.838 8.084 1.543 16.18 3.159 24.182 5.259 16.964 4.626 33.23 12.891 48.145 24.463 16.18 12.277 31.87 25.72 47.694 38.805 10.942 9.082 21.61 19.061 32.895 27.497 11.749 8.759 23.867 16.835 36.929 21.663 16.263 5.995 32.594 7.18 47.79-4.11 12.2-8.974 22.567-21.053 29.27-37.889 4.855-12.187 10.394-23.925 15.496-35.897 3.625-8.579 7.194-17.212 10.49-26.025 4.637-12.402 11.49-22.381 19.054-31.679 4.404-5.384 8.507-11.45 13.417-15.92 11.462-10.41 23.676-19.24 37.354-23.62a81.713 81.713 0 0 1 18.492-3.32c22.896-1.795 45.218 1.794 66.46 13.838 19.312 10.876 38.72 21.538 57.787 33.06 19.545 11.793 38.94 24.231 59.443 33.205 12.884 5.636 25.987 10.123 39.664 10.356 20.996.377 40.5-6.587 57.83-22.884 17.589-16.548 29.023-38.894 36.573-65.045 5.58-19.294 9.998-39.002 10.792-59.786.752-20.102-1.943-39.63-5.745-58.942-3.58-17.622-8.89-34.557-15.798-50.382-10.408-24.32-26.26-40.868-44.903-53.342-20.79-13.892-43.112-20.461-66.104-23.818-8.493-1.256-16.946-3.266-25.467-3.805-7.475-.253-14.954.13-22.39 1.149-8.508.897-17.043 1.885-25.454 3.805-13.842 3.177-27.67 6.677-41.361 10.769-22.035 6.695-43.905 14.359-65.954 21.036-19.996 6.084-40.212 9.871-60.892 8.974-22.35-.862-43.454-7.341-62.725-22.4-15.155-11.846-30.091-24.23-45-36.579-12.519-10.317-25.64-19.32-39.24-26.922-12.433-6.964-24.839-14.233-36.739-22.615-15.66-11.003-25.166-29.184-31.17-50.722-4.213-15.06-5.472-30.872-6.84-46.666-2.872-32.9-2.297-65.889-2.325-98.878 0-19.42.247-38.822.48-58.243.081-6.55.874-13.102.67-19.635-.452-15.149-5.198-27.48-15.128-35.897a16.376 16.376 0 0 0-3.775-2.62c-14.389-6.354-28.956-9.226-44.138-5.26-20.77 5.706-41.015 14.316-60.386 25.685-20.243 11.559-40.363 23.512-60.728 34.712-18.711 10.302-37.874 18.99-57.31 26.923-16.317 6.605-32.402 14.358-48.404 22.274-18.999 9.387-37.792 19.492-56.68 29.31a9.772 9.772 0 0 0-1.368 1.022v5.618c18.369-9.638 36.642-19.581 55.107-28.825 19.791-9.907 39.938-18.433 60.181-26.743 16.974-6.982 33.647-15.382 50.115-24.212 24.236-12.977 48.035-27.354 72.3-40.24 12.409-6.428 25.096-11.888 37.996-16.352 12.063-4.29 24.51-6.443 37.025-2.961 4.912 1.124 9.728 2.886 14.375 5.259 10.272 5.869 15.688 16.764 15.839 31.41.109 10.769-.944 21.538-.971 32.307-.124 35.896-.753 71.793.232 107.51.739 26.546 1.505 53.379 7.29 79.189 6.51 29.112 19.149 52.05 40.417 65.547 13.678 8.616 27.465 16.674 41.334 24.626 13.459 7.717 25.632 18.325 38.01 28.448 16.933 13.838 33.168 29.22 51.66 39.486 12.064 6.677 24.62 11.38 37.682 12.08 10.873.574 21.774.52 32.662.466 11.12 0 21.966-3.105 32.703-6.39 27.355-8.345 54.71-17.32 82.065-25.755 17.672-5.597 35.634-9.484 53.74-11.63 4.445-.486 8.849-1.58 13.294-1.796a94.496 94.496 0 0 1 17.015.27c11.694 1.56 23.389 3.32 34.973 5.797 21.953 4.702 42.77 13.317 62 28.843 18.767 15.13 31.295 36.381 39.748 62.335 8.132 25.03 12.739 51.786 13.595 78.973.397 11.29-1.217 22.363-3.16 33.312-3.528 19.905-8.41 39.163-16.412 56.842-10.026 22.167-23.881 39.236-41.84 49.484-13.5 7.608-28.198 10.84-42.852 9.423-13.152-1.258-26.074-5.207-38.297-11.702-15.387-8.023-30.583-16.656-45.724-25.47-11.558-6.73-22.76-14.501-34.33-21.178-18.575-10.77-37.08-21.808-56.94-27.892a114.592 114.592 0 0 0-22.185-3.93c-6.552-.629-13.172-.162-19.764-.144-19.547.043-38.624 7.866-54.71 22.435-5.294 4.667-9.862 10.77-15.046 15.58-8.562 8.112-13.965 19.743-20.339 30.296-4.851 8.076-8.841 16.983-11.858 26.474-2.736 8.58-6.524 16.62-9.834 24.895a174.332 174.332 0 0 1-5.471 13.604c-4.432 8.723-8.7 17.751-13.938 25.595-9.027 13.48-20.872 20.587-34.412 22.974-17.262 3.033-32.485-5.277-47.763-14.072-18.587-10.769-34.754-26.581-51.673-40.868-15.88-13.426-31.459-27.497-48.35-38.733-18.055-12.043-36.848-21.143-57.036-24.643-14.307-2.459-28.586-5.133-42.907-7.305-26.698-4.038-52.74-11.415-77.415-25.738-13.527-7.843-26.903-16.154-40.266-24.464-13.363-8.31-25.988-17.697-39.528-24.84-15.32-8.077-30.474-17.015-46.737-21.718a5.224 5.224 0 0 0-1.586 0l-.014 5.618z"></path><path d="M-99.904 329.384c16.973-11.445 33.864-23.087 50.933-34.19 8.704-5.978 17.685-11.231 26.891-15.728 21.357-9.77 42.96-18.624 64.386-27.838 20.192-8.637 40.33-17.473 60.577-25.804 13.603-5.597 27.22-11.409 41.097-15.422 16.726-4.84 32.7-1.637 46.248 13.622 5.467 6.136 9.606 14.055 12 22.962 6.342 22.693 10.484 46.344 12.33 70.396 1.807 24.958 3.451 49.953 5.479 74.894 1.233 15.602 2.41 31.257 4.562 46.679 4.507 32.39 17.877 56.846 40.302 71.98 9.398 6.37 19.795 9.249 29.987 12.596 15.234 5.038 30.412 10.4 44.44 19.92 9.356 6.352 18.562 13.1 27.754 19.794 14.151 10.42 27.878 21.99 42.467 31.257 25.097 15.962 51.782 19.003 79.455 14.99 23.836-3.455 46.015-14.594 68.85-22.727 15.645-5.579 31.03-12.363 46.66-17.995 28.357-10.383 57.152-16.628 86.728-13.712 17.042 1.691 33.207 8.295 49.248 15.655 11.706 5.1 22.724 12.6 32.645 22.224 9.73 10.003 18.116 22.077 24.81 35.72 10.451 20.658 16.068 43.691 19.63 67.822 5.616 38.815-2.918 72.79-19.864 103.92-6.452 11.877-15.576 19.939-25.494 26.201-16.439 10.311-33.466 11.787-51.152 6.766-21.603-6.136-41.864-16.861-61.646-29.493-22.617-14.396-45.124-29.188-67.933-43.098-15.837-9.78-32.57-16.832-49.782-20.982a57.199 57.199 0 0 0-13.316-1.386c-9.096 0-18.22 0-27.275.954-14.658 1.494-28.11 8.368-40.905 17.599-11.877 8.547-21.63 20.46-30.946 33.164-15.069 20.605-26.521 44.52-36.987 69.46-5.353 12.969-11.3 25.498-17.81 37.52-3.634 7.1-9.033 12.322-15.273 14.774-3.233 1.151-6.206 3.49-9.357 5.092-9.206 4.679-18.288 1.962-27.398-.99-17.398-5.65-32.645-17.22-47.659-29.62-20.398-16.842-40.823-33.65-61.563-49.737-13.083-10.131-27.261-17.167-41.81-23.141-16.987-6.964-34.412-10.113-51.905-13.298-16.782-3.06-33.686-5.777-49.974-11.985-14.588-5.484-28.761-12.712-42.344-21.594-23.289-15.385-46.467-31.023-69.77-46.337-6.205-4.066-12.945-6.784-19.041-11.102-9.014-6.389-18.603-10.653-28.206-15.008-3.343-1.53-6.768-2.7-10.165-4.031v5.614c5.247 2.142 10.535 4.14 15.74 6.479 6.85 3.077 13.836 6.118 20.549 9.789 4.41 2.411 8.41 6.046 12.685 8.997 23.987 16.196 47.947 32.39 72.03 48.244 15.173 9.96 30.983 18.15 47.247 24.473 13.7 5.399 27.892 7.846 42.015 10.635 15.33 3.042 30.741 5.849 45.892 10.131 26.11 7.378 49.824 22.296 72.249 41.227 20.288 17.113 40.85 33.65 61.536 49.9 12.697 9.676 26.62 16.266 41.097 19.452 9.977 2.46 20.294.013 28.987-6.874 6.332-4.778 12.245-10.456 17.63-16.933 4.034-5.325 7.462-11.386 10.18-17.995 6.849-15.332 13.315-31.023 20.013-46.499a182.157 182.157 0 0 1 7.617-16.051c3.576-6.388 7.535-12.417 11.453-18.481 2.74-4.247 5.561-8.458 8.534-12.416 7.566-9.955 16.074-18.591 25.316-25.697 15.15-11.84 31.508-18.84 49.22-19.147 11.22-.216 22.494-.935 33.659 2.052 13.84 3.515 27.325 9.106 40.193 16.663 16.055 9.663 31.891 19.938 47.947 29.71 17.932 10.958 35.809 22.151 54.015 32.282 14.795 8.224 30.138 14.288 46.33 16.196 18.107 2.456 36.299-3.462 51.44-16.736 14.411-12.344 24.165-29.385 30.823-50.061 6.123-19.039 9.863-38.617 9.589-59.383-.163-5.631-.62-11.241-1.37-16.79-4.986-41.568-17.576-77.971-42.11-106.17-8.758-10.076-18.785-18.071-29.632-23.626-13.617-6.964-27.398-13.479-41.85-17.042-12.275-3.151-24.771-4.569-37.275-4.228-26.029.953-51.317 7.755-76.222 17.31-22.918 8.782-45.837 17.564-68.728 26.543-10.754 4.229-21.466 8.404-32.727 10.131-16.439 2.484-32.727 4.067-49.056.432-17.412-4.097-34.093-12.407-49.193-24.509-16.877-13.154-33.988-25.786-51.166-38.22-12.096-8.746-25.193-14.253-38.467-19.075-11.85-4.301-23.905-7.99-35.357-13.695-20.549-10.257-33.303-30.59-39.371-58.195-3.576-16.195-4.89-33.092-6.11-49.882-2.096-28.468-4.11-56.953-6.247-85.403-1.471-19.58-4.572-38.89-9.247-57.584-2.74-10.797-6.027-21.45-11.877-30.447-9.986-15.314-22.932-21.72-37.713-23.07-10.877-.99-21.302 2.268-31.508 6.515-21.247 8.817-42.467 17.599-63.687 26.65-20.014 8.53-39.836 17.833-59.933 25.985-19.932 8.176-39.397 18.2-58.248 29.997-12.096 7.522-23.727 16.285-35.618 24.347-3.589 2.43-7.397 4.337-11.096 6.496l-.082 7.216z"></path><path d="M-100.473 667.36c19.383 9.012 38.235 19.873 56.405 32.496a5848.666 5848.666 0 0 0 67.794 45.563c19.364 12.761 39.47 23.366 60.686 29.369 12.022 3.469 24.277 5.572 36.464 8.07 18.897 3.864 37.781 7.908 55.938 16.176 13.16 6.106 25.796 14.004 37.698 23.564a4548.61 4548.61 0 0 0 32.718 25.576c12.474 9.67 24.826 19.591 37.52 28.758 11.695 8.692 24.441 14.692 37.685 17.74 13.161 2.858 24.95-1.797 35.682-12.168 11.35-10.784 17.978-26.421 25.43-41.214 7.08-14.055 13.723-28.524 20.681-42.651a185.877 185.877 0 0 1 10.636-19.376c16.62-25.414 34.776-48.42 58.655-62.17 10.828-6.255 22.122-6.543 33.664-6.201 23.412.683 44.986 9.723 65.667 23.365 23.33 15.332 46.66 30.843 69.991 45.995 19.112 12.691 38.903 23.546 59.218 32.478 9.016 3.829 18.142 7.19 27.666 7.8 11.452.813 22.897-1.761 33.486-7.53 12.33-6.175 22.746-17.535 29.616-32.299 6.71-14.455 11.077-30.564 12.831-47.324 3.472-31.76-4.227-60.158-15.206-87.496-6.957-17.26-16.635-32.386-28.394-44.377-12.141-12.437-25.898-21.899-40.608-27.931-6.793-2.858-13.724-5.176-20.709-7.19-14.286-4.187-28.696-3.594-43.243-2.156-28.12 2.894-54.826 12.869-80.901 26.133-15.316 7.783-30.192 16.985-45.425 25.163a281.513 281.513 0 0 1-32.168 15.584c-8.087 2.925-16.413 4.56-24.8 4.87-15.438.737-30.946-.754-45.356-8.609-12.008-6.578-23.646-14.469-35.132-22.557-11.967-8.411-23.523-17.776-35.284-26.673-15.713-11.88-32.168-21.568-49.899-26.852-11.843-3.595-23.879-5.914-35.764-9.31-7.888-1.992-15.65-4.762-23.22-8.286-17.155-8.592-27.447-26.044-33.966-47.9-5.201-17.453-6.793-35.732-7.809-54.245a2258.89 2258.89 0 0 0-3.815-56.634c-1.249-15.584-2.745-31.149-4.639-46.732-2.182-17.974-5.324-35.767-11.802-52.303-7.905-20.113-20.229-32.227-36.752-37.745-13.614-4.547-27.05-2.714-40.306 1.798a5241.859 5241.859 0 0 0-85.389 30.16c-25.704 9.418-50.626 21.73-74.107 38.66-15.659 11.306-31.126 23.079-46.66 34.618-1.538 1.132-3.198 2.013-4.804 3.001v7.046c15.686-11.719 31.29-23.617 47.086-35.066A286.357 286.357 0 0 1-25.212 299.6c12.145-6.758 24.565-12.887 37.15-18.081 17.73-7.316 35.681-13.75 53.604-20.13 16.894-6.004 33.83-11.935 50.888-17.022 14.93-4.44 29.752-3.774 44.066 4.817 11.94 7.19 19.501 19.412 24.703 34.6 5.49 16.176 8.083 33.43 9.95 50.829 2.154 20.148 4.116 40.35 5.804 60.607 1.222 15.385 1.592 30.86 2.58 46.282 1.455 22.826 5.05 44.934 14.273 64.849 8.483 18.557 22.287 31.892 38.33 37.025 13.12 4.476 26.5 7.711 39.799 11 19.908 4.703 39.058 13.82 56.624 26.96 16.88 12.744 33.705 25.667 50.9 37.637 9.633 6.68 19.644 12.376 29.946 17.04 15.096 6.847 30.933 6.883 46.66 6.003 14.904-.827 28.723-7.19 42.269-14.685 17.14-9.382 34.062-19.43 51.258-28.614 20.958-11.493 42.819-19.931 65.187-25.163 16.221-3.595 32.662-6.452 49.13-3.433 26.748 4.943 52 15.188 73.216 38.41 12.49 13.798 22.46 31.087 29.177 50.596 4.768 12.869 8.193 26.519 10.182 40.584 2.745 22.36 0 43.748-6.49 64.58-3.19 10.153-7.867 19.391-13.766 27.193-11.596 15.404-26.294 20.922-42.227 22.413-13.724 1.295-26.473-3.918-39.209-9.598-23.426-10.442-45.562-24.605-67.575-39.236-24.538-16.32-48.815-33.359-74.231-47.324-12.55-6.87-25.854-11.08-39.414-12.474-7.315-.791-14.657-1.438-21.958-1.402-12.09 0-23.07 5.59-33.527 13.175-14.524 10.718-27.634 24.435-38.824 40.62-10.328 14.576-19.702 30.262-28.024 46.893-6.862 13.696-12.653 28.237-19.103 42.256-4.205 9.531-9.38 18.268-15.384 25.972-4.721 5.823-10.719 9.113-16.633 12.402-11.281 6.273-22.411 3.415-33.5-1.097-16.358-6.632-31.125-17.506-45.631-29.189-15.672-12.581-31.702-24.516-47.36-37.187-12.227-9.732-25.17-17.831-38.632-24.175-11.573-5.497-23.522-9.53-35.682-12.042-17.456-3.757-34.926-7.441-52.383-11.305-13.641-3.02-26.651-8.843-39.606-15.008-14.85-7.064-28.683-16.878-42.64-26.332-28.915-19.573-57.639-39.722-87.488-56.707-7.04-4.008-14.396-7.027-21.615-10.496l-.055 5.715z"></path><path d="M-100.431 382.383c8.608-7.184 17.408-13.793 25.77-21.337 16.653-15.05 33.746-29.113 52.06-40.41 9.1-5.4 18.402-10.195 27.87-14.368 23.656-10.902 48.053-18.194 72.614-24.606 13.468-3.592 27.06-6.806 40.954-5.873 11.7.499 23.066 5.223 32.84 13.65 8.526 7.526 13.812 18.84 17.848 31.035 5.712 17.35 8.238 35.777 9.762 54.42 1.167 13.703 2.1 27.443 2.979 41.182 1.14 17.727 2.142 35.454 3.158 53.199.878 15.176 2.087 30.316 5.629 44.9 6.068 25.144 17.189 45.044 35.201 57.688 6.995 4.796 14.612 7.842 22.461 8.98 13.468 2.191 26.923 4.598 40.419 6.681 19.563 3.117 38.48 11.168 55.7 23.708 19.055 13.65 36.478 30.335 53.639 47.648 6.998 6.823 12.782 15.548 16.956 25.575 2.388 5.873 3.528 11.89 2.21 18.23-1.01 5.694-2.58 11.194-4.668 16.362-9.693 21.821-20.086 43.104-29.545 65.07-7.126 16.559-15.294 32.148-23.34 47.881-6.423 12.827-15.937 22.48-27.033 27.426-7.32 3.316-15.227 3.716-22.721 1.149-17.34-5.622-33.17-15.823-48.423-27.82-18.219-14.368-36.451-28.737-55.054-42.207-16.626-12.033-34.213-21.354-52.98-26.024-12.357-3.071-24.713-5.388-37.07-7.974-20.854-4.4-41.613-9.447-61.342-19.757-12.109-6.304-24.136-12.967-35.86-20.42-20.594-13.093-40.803-27.048-61.287-40.393-19.537-12.716-39.183-25.144-58.789-37.716v7.04c4.943 2.497 10.078 4.526 14.814 7.597 15.857 10.292 31.577 20.942 47.352 31.449 17.19 11.44 34.323 22.953 51.608 34.268 14.883 9.752 29.916 19.127 45.677 26.186 15.921 7.07 32.278 12.334 48.89 15.733 13.413 2.784 26.813 5.693 40.212 8.62 15.71 3.478 30.937 9.991 45.183 19.326 22.626 14.637 44.153 31.825 65.625 49.103 14.534 12.01 30.234 21.415 46.68 27.964 19.028 7.31 35.229.718 49.507-16.164 7.95-9.393 13.235-21.552 18.823-33.155a7055.268 7055.268 0 0 0 27.238-57.94c5.643-12.212 11.149-24.55 16.38-37.07a139.897 139.897 0 0 0 4.942-16.163c2.004-7.31.933-14.368-1.648-21.05-3.776-10.364-9.245-19.518-16.022-26.814-19.756-20.618-39.965-40.267-62.632-55.174-17.203-11.546-35.884-18.852-55.109-21.552-14.567-1.958-29.106-4.58-43.549-7.759-15.802-3.466-27.829-15.176-37.178-31.861-7.95-14.259-12.841-31.038-14.169-48.6-1.936-23.24-3.048-46.59-4.64-69.883-1.236-17.96-2.43-35.92-4.12-53.737-1.564-16.955-3.857-33.748-9.198-49.57-4.86-14.369-11.381-27.048-21.486-36.047-6.864-6.178-14.731-9.41-22.845-11.602-11.766-3.179-23.477-1.907-35.23.341-23.33 4.728-46.401 11.423-69.07 20.044-21.597 7.902-42.74 17.35-62.249 31.88-14.745 10.973-28.831 23.348-43.22 35.255-6.946 5.765-13.728 11.872-20.593 17.817l.069 5.64z"></path><path d="M-101.5 421.017c3.609-3.777 7.3-7.41 10.799-11.33 19.868-22.317 40.656-42.962 63.556-59.704 16.054-11.408 33.1-20.23 50.769-26.274 16.576-5.84 33.508-9.787 50.604-11.797a61.875 61.875 0 0 1 14.476-.306c8.891.99 17.7 2.5 26.221 6.6 13.392 6.078 24.082 19.537 29.254 36.83 6.186 19.764 9.893 40.71 10.977 62.025.974 17.282 1.674 34.6 2.538 51.9.96 19.152 1.743 38.322 3.019 57.438 1.55 23.163 6.202 45.39 15.985 64.848 11.224 22.335 27.127 35.571 48.107 36.578 18.784.917 37.582 1.349 56.257 3.003 18.126 1.6 34.88 9.91 50.563 21.58 9.817 7.38 18.196 17.641 24.478 29.979 8.7 16.814 11.69 34.492 7.327 54.615-4.398 21.295-11.961 41.242-22.255 58.697-14.668 24.44-35.854 30.248-57.63 17.66-19.895-11.473-38.42-26.076-56.545-41.362-10.497-8.883-21.103-17.587-31.888-25.896-16.401-12.612-34.755-20.232-53.705-22.299-14.791-1.798-29.624-2.787-44.374-4.963-19.841-2.914-38.886-10.43-57.273-20.285-17.206-9.19-34.166-19.243-50.892-29.799-13.35-8.416-26.276-17.983-39.284-27.352-17.083-12.283-34.056-24.835-51.084-37.28v7.05c1.62.935 3.293 1.798 4.83 2.84 20.5 14.873 40.752 30.357 61.526 44.528 22.173 15.106 44.223 30.715 67.55 42.728 17.96 9.243 36.1 18.11 55.31 21.58 13.433 2.5 26.99 4.172 40.532 5.233 25.247 1.978 48.972 9.819 70.486 27.964 17.138 14.387 34.482 28.468 51.867 42.423 13.145 10.538 26.852 19.674 41.685 25.482 12.459 4.892 24.328 2.518 35.771-5.197 9.385-6.312 16.164-15.987 21.79-27.424 8.275-16.452 14.573-34.471 18.674-53.429 4.679-22.263.823-42.099-9.056-60.514-10.222-19.044-24.136-31.704-40.395-40.3-11.128-5.863-22.517-10.79-34.496-12.337-8.342-1.079-16.794-.773-25.192-1.24-11.965-.684-23.943-1.26-35.88-2.339-22.847-2.05-37.899-18.792-47.655-44.76-6.86-18.343-9.879-37.999-10.798-58.302a7626.604 7626.604 0 0 0-3.403-68.031c-.878-16.185-1.688-32.244-3.17-48.285-1.602-19.127-5.695-37.752-12.102-55.065-7.684-20.285-20.582-31.795-37.047-37.19-16.987-5.539-34.043-4.783-51.153-1.313-17.869 3.413-35.457 8.994-52.539 16.671-17.88 8.325-34.973 19.306-50.947 32.73-18.921 15.807-36.045 34.618-53.114 53.554-.979.983-2 1.89-3.06 2.715l-.014 7.122z"></path><path d="M-97.445 461.19c6.233-9.848 12.303-19.93 18.728-29.51 10.154-14.751 21.431-28.107 33.655-39.86 10.195-10.192 21.007-19.277 32.33-27.165 10.05-6.512 20.545-11.776 31.345-15.722 13.67-5.372 27.49-9.938 41.776-11.192 15.037-1.325 29.472 2.382 43.457 9.204 11.838 5.766 19.52 17.316 24.797 32.053 5.673 15.794 8.68 32.555 10.376 49.728 2.734 27.11 3.308 54.4 3.663 81.726.41 32.43 1.531 64.841 5.277 96.966 1.476 12.696 3.035 25.356 4.538 38.034 1.23 10.458-1.462 18.641-8.079 24.837-7.122 6.661-15.228 10.01-23.567 12.535-4.853 1.504-9.815 2.31-14.668 3.76-9.159 2.722-18.044-.34-27.012-1.79-24.606-3.994-47.845-14.666-70.154-28.33-13.22-8.075-26.547-16.008-39.192-25.48-13.588-10.19-26.588-21.758-39.52-33.343-9.57-8.524-18.523-18.05-27.75-27.111v7.055c3.116 3.008 6.302 5.91 9.336 8.954 14.453 14.844 29.587 28.515 45.316 40.935 13.892 10.917 28.196 20.91 42.856 29.94 13.966 8.741 28.302 16.43 42.938 23.028 11.85 5.07 24.045 8.632 36.416 10.637 4.758.877 9.57 2.095 14.3 2.345 11.127.591 21.94-2.363 32.657-6.016 7.657-2.346 14.897-6.601 21.325-12.535 7.308-6.47 11.013-17.98 9.446-29.35-1.818-16.832-4.196-33.593-5.837-50.46-1.299-13.413-2.228-26.861-2.666-40.417-.97-29.635-1.203-59.307-2.378-88.925-.889-22.58-2.392-45.179-7.109-67.097-3.007-14.003-7.135-27.29-14.326-38.732-7.71-12.284-17.77-19.178-29.28-22.885a131.841 131.841 0 0 0-22.078-4.96c-13.287-1.88-26.26 1.378-39.137 5.372-17.771 5.48-35.242 12.158-51.25 23.69-10.56 7.746-20.724 16.383-30.429 25.858-16.758 16.331-31.853 35.401-44.92 56.747-1.653 2.668-3.485 5.121-5.235 7.682l.055 9.795zM728.787 798.904c13.444.14 26.544-5.48 37.248-15.98 8.309-8.31 13.294-19.964 17.032-32.601 5-16.962 4.874-33.96 1.634-51.423-5.442-29.313-16.062-54.783-33.15-75.391-9.994-11.863-21.661-21.135-34.368-27.312-13.087-6.69-26.9-10.719-40.945-11.94-12.2-.982-24.08.984-36.003 3.575-20.044 4.711-39.456 13.14-57.63 25.024-9.846 6.372-18.942 14.515-27.016 24.183-5.54 6.595-8.82 15.336-11.078 24.451-1.662 6.703 1.039 12.726 3.656 18.374 3.97 8.112 9.345 14.922 15.702 19.894 14.844 12.386 29.619 24.934 44.754 36.695 25.201 19.554 51.234 37.106 78.665 50.922 10.774 5.31 21.963 9.092 33.37 11.278 2.701.353 5.419.437 8.129.25zm-59.016-208.355a63.525 63.525 0 0 1 8.654 0c16.373 2.06 32.322 7.922 47.08 17.302 15.495 9.73 28.687 24.641 38.204 43.183 7.09 13.78 12.338 29 15.523 45.024 3.17 15.818 4.361 31.422.498 47.437-7.754 32.173-23.54 46.937-50.306 49.457-9.693.93-18.943-2.753-28.096-6.185-23.692-8.936-45.39-23.754-67.06-38.518-11.147-7.596-21.837-16.354-32.555-25.023a1609.423 1609.423 0 0 1-38.245-31.69c-6.646-5.42-11.56-13.742-13.847-23.45a10.477 10.477 0 0 1-.236-5.362c3.351-8.937 5.927-18.625 12.74-24.63 5.968-5.255 11.548-11.386 17.876-15.694a262.008 262.008 0 0 1 27.555-16.086c19.79-10.264 40.902-15.613 62.229-15.765h-.014zM276.664 664.558c-20.203.682-34.932 4.33-48.341 14.248-3.995 3.014-7.461 7.11-10.17 12.021-4.083 7.547-2.98 16.028.123 23.934 5.846 15.05 14.028 28.304 24.014 38.901 10.101 10.673 20.747 20.484 32.795 27.114 6.357 3.594 12.742 6.595 19.902 6.72 14.253.252 32.155-13.224 37.56-35.02 4.887-19.765 4.083-38.685-5.242-56.169-4.969-9.235-11.83-15.326-19.29-20.483-11.38-7.852-23.388-11.86-31.351-11.266zm.245 5.893c10.926 1.18 21.53 5.472 31.079 12.578 21.046 15.309 26.07 38.775 20.624 65.063-4.084 19.909-20.107 34.66-34.932 32.954-6.017-.683-12.034-3.72-17.697-6.792-11.231-6.091-21.073-15.399-30.548-25.156-9.82-10.121-17.74-23.095-23.143-37.913-3.526-9.649-2.246-17.088 4.275-23.233a55.492 55.492 0 0 1 7.337-5.588c13.137-8.93 27.363-10.853 43.005-11.913z"></path><path d="M125 498.554c-1.007-28.202-1.946-55.403-8.056-81.764-6.995-30.15-22.44-48.112-45.398-55.76-14.833-4.933-29.612-3.236-44.282.768-17.596 4.559-34.448 13.13-49.793 25.324-17.806 14.544-33.478 33.17-46.269 54.992-8.831 14.916-15.69 31.675-20.29 49.577-4.396 16.422-3.796 34.438 1.674 50.292 6.479 20.605 17.436 38.246 31.504 50.721 13.35 11.85 26.93 23.359 40.825 33.957 14.275 10.955 29.87 18.068 45.697 24.252 11.58 4.54 23.257 8.293 35.464 8.078 8.341-.128 16.592-2.292 24.331-6.38 13.867-7.328 21.638-21.875 26.047-39.962 3.307-13.618 4.341-27.773 5.13-41.928.953-17.192 1.647-34.403 2.45-51.596l.966-20.57zM65.885 653.201c-6.505-.733-11.186-.626-15.65-1.895-14.533-4.128-29-8.936-42.621-16.87A272.876 272.876 0 0 1-19.1 617.223c-10.437-7.9-20.412-16.96-30.496-25.574-13.609-11.653-24.713-26.54-31.98-45.842-5.443-14.512-8.274-29.382-4.953-45.878 5.17-25.717 15.459-47.414 28.713-66.93 16.657-24.503 36.335-43.697 59.877-55.403 18.018-8.936 36.54-15.21 56.067-13.387 11.563.902 22.754 5.697 32.497 13.923 12.955 11.08 19.787 27.701 23.339 46.753 4.872 26.49 6.829 53.76 5.81 80.978-.843 24.663-2.177 49.309-3.51 73.936-.52 12.572-2.49 24.967-5.839 36.763-5.13 17.354-14.288 28.595-28.047 33.01-6.055 1.983-12.166 2.788-16.493 3.628zM659.116 615.603c-13.45.76-26.587 5.62-38.384 14.197-6.925 4.964-12.919 11.92-17.539 20.357-3.948 7.424-4.508 15.715-2.732 24.313 2.89 13.264 8.923 24.952 17.211 33.344 15.368 16.257 31.555 30.707 49.968 40.262 11.925 6.178 23.986 11.741 36.881 13.963 8.698 1.388 17.517-.372 25.517-5.094 10.805-6.015 16.077-18.063 18.55-32.513 1.518-8.995 1.135-18.368-1.107-27.095-3.931-17.181-10.544-33.081-19.41-46.674-6.816-10.045-15.207-18.003-24.588-23.32-13.871-8.528-29.082-12.553-44.367-11.74zm9.466 6.43c10.368 0 20.04 4.1 29.465 9.031 13.495 7.226 24.778 18.063 32.783 34.591 4.166 8.744 7.644 18.029 10.382 27.709 2.43 8.29 3.934 16.708 3.087 25.505-1.107 11.722-3.962 22.885-12.035 29.262-9.273 7.352-20.303 9.803-30.884 6.863-13.239-3.58-26.12-9.174-38.384-16.672-14.384-8.562-27.183-20.41-39.791-32.748-6.068-5.836-11.064-13.405-14.616-22.145-5.915-14.65-6.639-25.108 4.453-38.257 1.065-1.265 2.076-2.583 3.196-3.721 15.531-15.535 33.508-19.563 52.344-19.418z"></path><path d="M36.373 610.92c21.766 1.244 40.24-11.936 48.47-37.656 6.763-20.703 10.457-42.897 10.884-65.402.176-12.042.585-24.137-.15-36.09-.862-17.42-5.048-34.279-12.176-49.039-5.441-11.152-13.114-18.534-22.405-23.514-18.57-9.925-36.84-6.99-54.932 1.92-17.402 8.375-32.862 22.463-44.893 40.91-11.11 16.73-18.374 37.227-20.95 59.125-.626 5.336.204 11.063.925 16.488 3.115 23.497 12.61 41.817 26.718 56.634C-18.24 588.8-2.338 599.67 14.702 606.312c7.74 3.06 15.604 5.07 21.67 4.607zm55.19-117.644v6.955C91.279 525.72 88 550.337 79.77 573.709c-7.482 21.22-21.072 29.971-37.682 31.714-12.72 1.334-24.964-3.38-36.73-9.214-13.285-6.582-25.624-16.047-36.5-27.996-11.659-12.7-19.807-28.46-22.95-48.025-.966-6.048-1.986-12.575-1.224-18.499a171.082 171.082 0 0 1 5.972-26.52c5.238-17.662 14.053-32.194 25.058-44.218 12.025-13.431 26.227-23.114 41.533-28.317 13.168-4.358 25.956-5.336 39.138.533 12.324 5.097 22.347 16.943 27.466 32.462 6.394 18.356 8.217 37.744 7.714 57.647zM688.543 712.5c5.101 0 9.298-2.924 12.986-6.703 4.24-4.278 5.016-12.71 2.656-20.625-2.216-7.416-6.328-13.688-11.686-17.827-5.62-4.837-12.001-8.084-18.708-9.519-6.227-1.12-12.564.668-17.82 5.027-6.429 4.992-8.153 13.851-4.79 22.408 3.29 8.688 8.905 15.632 15.855 19.61 6.802 3.968 14.062 6.543 21.507 7.629zm-18.751-48.827c7.489 0 13.876 3.94 19.966 8.913 5.09 3.897 8.807 10.103 10.386 17.346 1.413 6.578-.353 11.284-5.299 14.083-3.643 2.345-7.893 2.687-11.742.944-3.08-1.461-6.387-2.157-9.496-3.565-7.701-3.44-13.975-9.18-17.946-18.433-2.148-4.973-1.682-9.323 1.583-13.173 3.383-4.04 7.89-6.237 12.548-6.115z"></path><path d="M26.491 424.5c-11.71.414-21.761 6.142-31.282 13.618-11.493 8.733-20.462 22.29-25.487 38.529-5.712 18.66-6.08 37.232 1.7 55.569 7.78 18.337 19.503 30.045 34.342 36.565 5.172 2.465 10.51 4.275 15.94 5.404 7.929 1.351 15.477-1.801 22.522-6.466 7.861-5.278 13.139-13.888 17.137-24.191 6.284-16.212 9.806-33.234 9.031-51.445-.612-14.41-2.367-28.55-8.16-41.05-8.297-17.76-20.741-25.704-35.743-26.533zm-3.033 5.872c15.56 0 30.928 9.817 36.722 28.064 4.652 14.267 6.576 29.833 5.603 45.32-.961 11.163-3.137 22.084-6.46 32.422-5.63 18.824-16.511 29.361-31.58 32.297-1.752.396-3.54.396-5.291 0-11.86-3.152-23.394-7.53-33.24-17.436-17.681-17.779-24.482-45.662-14.961-73.726 6.42-18.895 17.232-31.702 31.404-39.916 6.42-3.747 13.043-6.917 17.803-7.097v.072z"></path></g></svg>